<?xml version="1.0" encoding="UTF-8"?><svg id="Ebene_1" xmlns="http://www.w3.org/2000/svg" viewBox="0 0 1920 16119"><defs><style>.cls-1{stroke:#000;}.cls-1,.cls-2{stroke-width:14px;}.cls-1,.cls-2,.cls-3{fill:none;stroke-miterlimit:10;}.cls-2{stroke:red;}.cls-3{stroke:#fff;stroke-width:45px;}</style></defs><path class="cls-3" d="m-184,328c7.67,182.68,227,0,417,55.84,199.3,58.57,122,30.46,301,78.17,47.31,12.61,209,78.17,386,78.17,52.77,0,966.91-201.81,1027,259.88,32.48,249.55,25.92,347.22-9,446.56-244,694.1-530.38,821.86-624,877.29-276,163.38-603,191.1-764,358.44-164.81,171.29-323.94,553.74-222,1105.4,43,232.71,43,365.71,352,528.15,314.31,165.23,761.59-150.28,996-3.05,118,74.11,387.58,375.99,329,682.25-60.3,315.24-98.95,564.23-307,803.04-491,563.58-1392,1158.75-1360,1621.39,32,462.64,1305,734.88,1575,1020.33,58.42,61.76,133.82,197.27,150,273.1,52,243.66,18.2,340.47,2,399-104,375.64-373,426.41-432,442.65-96.48,26.56-270.5,65.43-366.2,94.77-512.56,157.1-830.94,655.29-863.8,837.24-65.64,363.5-1021.5-214.43-1048.5,233.3"/><path class="cls-2" d="m-156.5,237s639.17,77.83,667,223.91c40,209.98,190.03,266.2,271,290.59,152,45.78,577-36.82,577-36.82,236.55-20.74,677.76-210.78,747.94,167.66,45,242.64,25.92,340.35-9,437.73-244,680.37-530.38,805.6-624,859.92-276,160.14-603,187.32-764,351.34-164.81,167.9-512.41,1151.11-300.94,1659.45,155.16,372.97,285.36-74.47,820,74.64,108.31,30.21,711.26,50.55,786,440.86,59.21,309.21,141.05,655.59-67,889.67-491,552.43-1523,1441.3-1491,1894.79,31.22,442.46,1071.18,497.99,1189.87,571.65,7.82,4.85,15.71,9.6,23.85,13.89,41.35,21.82,154.21,88.4,280.27,222.53,15.59,16.59,37.54,55.77,56,112.45.17.53,191.67,375.14-197.25,729.85-112.47,102.57-247.19,177.71-392.99,222.4-506.61,155.28-952.88,566.43-945.76,850.98,4.06,162.22-994.5,241.62-1010.5,565.05"/><path class="cls-3" d="m-443.51,11664.69c7.67,179.94,227,0,417,55,199.3,57.69,122,30,301,77,47.31,12.42,209,77,386,77,52.77,0,966.91-198.78,1027,255.98,32.48,245.8,25.92,342-9,439.85-244,683.68-530.38,809.52-624,864.1-276,160.92-603,188.23-764,353.05-164.81,168.72-323.94,545.42-222,1088.8,43,229.22,43,360.22,352,520.22,314.31,162.75,777.18,164.63,996-3,191.88-146.99,728.07,435.06,329.01,671.81-4010.81,2379.42-1262.55,178.5-307.01,791.16,623.88,400.01-1392,1141.34-1360,1597.03,32,455.69,1305,723.84,1575,1005,58.42,60.83,133.82,194.31,150,269,52,240,18.2,335.35,2,393-104,370-373,420-432,436-96.48,26.16-270.5,64.45-366.2,93.34-512.56,154.74-830.94,645.44-863.8,824.66-65.64,358.04,206,278,179,719"/><path class="cls-2" d="m-416.01,11357.19s639.17,95.3,667,274.16c40,257.1,190.03,325.94,271,355.8,152,56.05,577-45.08,577-45.08,236.55-25.4,677.76-258.08,747.94,205.28,45,297.09,25.92,416.72-9,535.96-244,833.05-530.38,986.39-624,1052.9-276,196.08-603,229.36-764,430.19-164.81,205.58-512.41,1409.43-300.94,2031.85,155.16,456.67,285.36-91.18,820,91.39,108.31,36.98,1173.04,420.33,786,539.79-1558.59,481.07-2541.53-127.19-2294.99,481.07,328.17,809.67,704.99,2373.01,736.99,2928.26,31.22,541.76,1071.18,609.75,1189.87,699.94,7.82,5.94,15.71,11.75,23.85,17.01,41.35,26.72,154.21,108.23,280.27,272.47,15.59,20.31,37.54,68.28,56,137.69.17.65,191.67,459.33-197.25,893.64-112.47,125.59-247.19,217.59-392.99,272.31-506.61,190.12-952.88,693.54-945.76,1041.96,4.06,198.62,87,581.22,71,977.23"/><path class="cls-1" d="m-425.95,128.79S213.22,210.82,241.05,364.79c40,221.31,190.03,280.57,271,306.27,152,48.25,577-38.81,577-38.81,236.55-21.86,677.76-222.15,747.94,176.71,45,255.74,25.92,358.71-9,461.35-244,717.09-530.38,849.08-624,906.33-276,168.79-603,197.43-764,370.31-164.81,176.97-512.41,1213.23-300.94,1749.01,155.16,393.1,285.36-78.49,820,78.67,108.31,31.84,711.26,53.28,786,464.65,59.21,325.9,141.05,690.98-67,937.69-491,582.24-1523,1519.09-1491,1997.05,31.22,466.34,1071.18,524.87,1189.87,602.5,7.82,5.12,15.71,10.11,23.85,14.64,41.35,23,154.21,93.17,280.27,234.54,15.59,17.49,37.54,58.78,56,118.52.17.56,191.67,395.39-197.25,769.24-112.47,108.11-247.19,187.3-392.99,234.4-506.61,163.66-952.88,597-945.76,896.91,4.06,170.97-994.5,254.66-1010.5,595.54"/><path class="cls-1" d="m-609.01,11796.76s639.17,92.84,667,267.1c40,250.48,190.03,317.55,271,346.64,152,54.61,577-43.92,577-43.92,236.55-24.75,677.76-251.43,747.94,200,45,289.45,25.92,406-9,522.16-244,811.61-530.38,961-624,1025.8-276,191.04-603,223.45-764,419.12-164.81,200.29-512.41,1373.16-300.94,1979.56,155.16,444.91,285.36-88.83,820,89.03,108.31,36.03,1173.04,409.51,786,525.9-1558.59,468.69-2541.53-123.91-2294.99,468.69C-404.83,18385.68-28.01,19908.78,3.99,20449.75c31.22,527.82,1071.18,594.05,1189.87,681.92,7.82,5.79,15.71,11.45,23.85,16.57,41.35,26.03,154.21,105.45,280.27,265.45,15.59,19.79,37.54,66.52,56,134.15.17.63,191.67,447.51-197.25,870.64-112.47,122.36-247.19,211.99-392.99,265.3-506.61,185.23-952.88,675.69-945.76,1015.14,4.06,193.51,87,566.26,71,952.08"/></svg>